{"title":"The Naked Target [1992/TVRip/XviD]","uid":8915454,"size":1564299264,"categoryP":"video","categoryS":"movies","magnet":"?xt=urn:btih:5bf33c4ce4336173f3cdbd23f5781ead24118155&amp;dn=The+Naked+Target+%5B1992%2FTVRip%2FXviD%5D&amp;tr=udp%3A%2F%2Ftracker.openbittorrent.com%3A80&amp;tr=udp%3A%2F%2Fopen.demonii.com%3A1337&amp;tr=udp%3A%2F%2Ftracker.coppersurfer.tk%3A6969&amp;tr=udp%3A%2F%2Fexodus.desync.com%3A6969","seeders":0,"leechers":2,"uploader":"torrent-cracker","files":-1,"time":1379131365,"description":"A light-hearted comedy that unmasks everyone!\n\nA New York executive is handcuffed to a precious briefcase to which only his Spanish contact holds the key and of which many others are in hot pursuit.\n\nThumbnails: &lt;a href=&quot;\nhttp://postimg.org/image/h5znpergj/&quot; rel=&quot;nofollow&quot; target=&quot;_NEW&quot;&gt;\nhttp://postimg.org/image/h5znpergj/&lt;/a&gt;\n\nMediaInfo\n\nGeneral\nComplete name                            : Naked Target-CG.avi\nFormat                                   : AVI\nFormat/Info                              : Audio Video Interleave\nFile size                                : 1.46 GiB\nDuration                                 : 1h 41mn\nOverall bit rate                         : 2 056 Kbps\nWriting application                      : VirtualDubMod 1.5.4.1 (build 2178/release)\nWriting library                          : VirtualDubMod build 2178/release\n\nVideo\nID                                       : 0\nFormat                                   : MPEG-4 Visual\nFormat profile                           : Advanced Simple@L5\nFormat settings, BVOP                    : 1\nFormat settings, QPel                    : No\nFormat settings, GMC                     : No warppoints\nFormat settings, Matrix                  : Custom\nCodec ID                                 : XVID\nCodec ID/Hint                            : XviD\nDuration                                 : 1h 41mn\nBit rate                                 : 1 794 Kbps\nWidth                                    : 720 pixels\nHeight                                   : 544 pixels\nDisplay aspect ratio                     : 4:3\nFrame rate                               : 23.976 fps\nColor space                              : YUV\nChroma subsampling                       : 4:2:0\nBit depth                                : 8 bits\nScan type                                : Progressive\nCompression mode                         : Lossy\nBits/(Pixel*Frame)                       : 0.191\nStream size                              : 1.27 GiB (87%)\nWriting library                          : XviD 1.2.0.dev47 (UTC 2006-11-01)\n\nAudio\nID                                       : 1\nFormat                                   : AC-3\nFormat/Info                              : Audio Coding 3\nMode extension                           : CM (complete main)\nFormat settings, Endianness              : Big\nCodec ID                                 : 2000\nDuration                                 : 1h 41mn\nBit rate mode                            : Constant\nBit rate                                 : 256 Kbps\nChannel(s)                               : 2 channels\nChannel positions                        : Front: L R\nSampling rate                            : 48.0 KHz\nBit depth                                : 16 bits\nCompression mode                         : Lossy\nStream size                              : 186 MiB (12%)\nAlignment                                : Split accross interleaves\nInterleave, duration                     : 96 ms (2.30 video frames)\nInterleave, preload duration             : 96 ms","torrent":{"xt":"urn:btih:5bf33c4ce4336173f3cdbd23f5781ead24118155","amp;dn":"The+Naked+Target+%5B1992%2FTVRip%2FXviD%5D","amp;tr":["udp%3A%2F%2Ftracker.openbittorrent.com%3A80","udp%3A%2F%2Fopen.demonii.com%3A1337","udp%3A%2F%2Ftracker.coppersurfer.tk%3A6969","udp%3A%2F%2Fexodus.desync.com%3A6969"],"infoHash":"5bf33c4ce4336173f3cdbd23f5781ead24118155","infoHashBuffer":{"type":"Buffer","data":[91,243,60,76,228,51,97,115,243,205,189,35,245,120,30,173,36,17,129,85]},"announce":[],"urlList":[]}}